# xmcd CD database file
#
# Track frame offsets:
#	150
#	17594
#	35735
#	50770
#	66899
#	87411
#	103155
#	121527
#	149452
#	169484
#	195568
#	246380
#
# Disc length: 3764 seconds
#
# Revision: 3
# Processed by: cddbd v1.5.2PL0 Copyright (c) Steve Scherf et al.
# Submitted via: CDex 1.51
#
DISCID=af0eb20c
DTITLE=Miles Davis - Vol.7 - Out of the Blue - Blue Haze 1953-1954
DYEAR=1900
DGENRE=Jazz
TTITLE0=Ray's Ideal [alt. Take] (W.G. Fuller - R. Brown) Miles Davis Sextet
TTITLE1=Tempus Fugit [alt. Take] (Bud Powell) Miles Davis Sextet
TTITLE2=C.T.A. [alt. Take] (Jimmy Heath) Miles Davis Sextet
TTITLE3=I Waited For You (W.G. Fuller) Miles Davis Sextet
TTITLE4=Miles Ahead (Miles Davis) Miles Davis Quintet
TTITLE5=When Lights Are Low (Spencer Williams - Benny Carter) Miles Davis Quintet
TTITLE6=Four (Miles Davis) Miles Davis Quartet
TTITLE7=Blue Haze (Miles Davis) Miles Davis Quartet
TTITLE8=You Don't Know What Love Is (Don Raye - Gene De Paul) Miles Davis Quintet
TTITLE9=But Not For Me [Take 1] (Ira Gershwin - George Gershwin) Miles Davis Quintet
TTITLE10=Bags' Grouve [Take 1] (Milt Jackson) Miles Davis All Stars
TTITLE11=The Man I Love (Ira Gershwin - George Gershwin)  Miles Davis All Stars
EXTD=
EXTT0=
EXTT1=
EXTT2=
EXTT3=
EXTT4=
EXTT5=
EXTT6=
EXTT7=
EXTT8=
EXTT9=
EXTT10=
EXTT11=
PLAYORDER=
